# xmcd CD database file
#
# Track frame offsets:
#	150
#	20997
#	38637
#	69592
#	90930
#	111217
#	122005
#	143585
#	164777
#	185090
#	203630
#
# Disc length: 3002 seconds
#
# Revision: 0
# Processed by: cddbd v1.5PL3 Copyright (c) Steve Scherf et al.
# Submitted via: CDex 1.50beta9
#
DISCID=990bb80b
DTITLE=JUN SKY WALKER(S) - "nine"
DYEAR=1995
DGENRE=Rock
TTITLE0=さらば愛しき危険たちよ
TTITLE1=Chance to Me
TTITLE2=汚れたてのエンジェル
TTITLE3=LOVE
TTITLE4=素顔のままで
TTITLE5=9 9 9
TTITLE6=HAPPY？
TTITLE7=風に吹かれて
TTITLE8=たまには会いたいね
TTITLE9=BLUE〜僕、地球〜
TTITLE10=はてなき想い
EXTD=YEAR: 1995
EXTT0=
EXTT1=
EXTT2=
EXTT3=
EXTT4=
EXTT5=
EXTT6=
EXTT7=
EXTT8=
EXTT9=
EXTT10=
PLAYORDER=
